<?xml version="1.0" standalone="no"?>
<!DOCTYPE svg PUBLIC "-//W3C//DTD SVG 20010904//EN"
 "http://www.w3.org/TR/2001/REC-SVG-20010904/DTD/svg10.dtd">
<svg version="1.0" xmlns="http://www.w3.org/2000/svg"
 width="980.000000pt" height="293.000000pt" viewBox="0 0 980.000000 293.000000"
 preserveAspectRatio="xMidYMid meet">
<metadata>
Created by potrace 1.16, written by Peter Selinger 2001-2019
</metadata>
<g transform="translate(0.000000,293.000000) scale(0.100000,-0.100000)"
fill="#000000" stroke="none">
<path d="M1514 2905 c-408 -105 -721 -454 -815 -908 -30 -143 -30 -361 0 -504
52 -250 161 -455 330 -623 180 -180 387 -281 634 -311 330 -40 688 105 915
372 74 86 172 241 172 270 0 9 -7 19 -15 22 -10 4 -24 -12 -46 -51 -91 -160
-217 -303 -345 -392 -92 -64 -219 -124 -321 -152 -67 -19 -103 -22 -253 -22
-161 0 -182 2 -263 27 -163 50 -295 128 -421 247 -427 405 -490 1081 -145
1570 149 211 391 373 634 425 96 21 285 24 370 6 151 -31 294 -93 412 -178 61
-43 74 -49 84 -37 16 20 -5 42 -103 105 -105 67 -193 106 -307 135 -81 21
-116 24 -260 24 -141 -1 -180 -5 -257 -25z"/>
<path d="M1460 2719 c-272 -71 -500 -280 -610 -559 -17 -42 -17 -50 -5 -50 8
0 15 7 15 15 0 8 9 15 20 15 11 0 20 4 20 9 0 5 8 12 19 16 10 3 23 15 29 28
7 14 11 17 12 7 0 -9 6 -6 15 10 8 14 14 19 15 11 0 -11 3 -11 15 -1 12 10 13
7 4 -22 -26 -85 -43 -244 -34 -313 5 -33 10 -51 13 -41 7 30 79 160 109 197
26 31 156 160 211 209 12 11 27 20 32 20 6 0 18 4 28 9 92 49 196 80 317 97
99 13 120 13 210 -2 98 -17 189 -45 264 -84 l38 -19 81 79 c44 43 88 83 99 89
16 10 11 18 -52 77 -130 123 -287 195 -469 214 -150 16 -311 12 -396 -11z"/>
<path d="M3617 2449 c-129 -9 -181 -34 -217 -104 -24 -47 -25 -58 -25 -210 0
-154 1 -162 28 -225 16 -36 41 -77 55 -92 l26 -28 -58 0 -59 0 5 -97 c4 -75
11 -113 32 -163 57 -139 97 -154 404 -148 201 3 221 5 270 27 53 24 112 80
112 106 0 8 5 15 10 15 6 0 10 -4 10 -10 0 -18 64 -81 104 -103 38 -21 56 -22
289 -25 288 -4 330 3 397 67 38 36 40 37 40 14 0 -12 5 -23 10 -23 6 0 10 -9
10 -19 0 -41 25 -51 134 -51 66 0 106 4 114 12 8 8 12 66 12 195 l0 183 220 0
c207 0 220 1 230 19 16 31 13 223 -4 247 -13 18 -30 19 -230 22 l-216 4 0 29
0 28 218 3 c119 2 274 2 345 0 l127 -3 0 -330 c0 -197 4 -329 9 -329 5 0 11
-12 13 -27 l3 -28 114 -3 c75 -2 118 1 127 9 11 9 14 74 14 360 l0 349 105 0
105 0 0 -320 c0 -223 4 -327 12 -343 6 -12 14 -29 18 -37 6 -13 54 -15 325
-18 226 -2 322 1 331 9 8 7 14 31 14 58 l0 47 49 -47 c29 -28 66 -52 88 -58
22 -6 144 -11 294 -11 255 0 255 0 307 26 57 28 108 90 119 144 6 31 7 30 47
-47 33 -62 51 -84 88 -106 42 -26 59 -29 189 -39 79 -5 197 -8 261 -5 149 6
189 25 230 107 37 73 48 153 48 346 0 130 -3 164 -15 174 -13 10 -12 14 2 28
13 13 15 31 9 108 -16 231 -81 294 -321 314 -129 11 -368 -2 -416 -22 -41 -18
-89 -72 -105 -120 l-10 -32 -23 47 c-13 26 -39 61 -59 77 -65 54 -106 60 -412
60 l-276 0 -46 -29 c-77 -49 -92 -93 -96 -289 l-4 -163 68 69 c56 56 117 102
136 102 2 0 2 -76 0 -168 -3 -162 -2 -169 20 -202 23 -34 74 -68 85 -57 3 3
-2 16 -11 29 -13 18 -16 51 -16 176 l0 154 30 29 30 30 137 -3 c76 -2 147 -7
157 -12 16 -8 18 -6 13 7 -4 12 3 10 31 -8 71 -46 79 -53 118 -110 l39 -57 0
-167 c0 -152 -2 -169 -22 -207 -28 -52 -72 -90 -121 -104 -21 -5 -142 -10
-277 -10 -212 0 -245 3 -280 19 -76 35 -125 114 -125 201 0 34 -3 38 -31 44
-17 3 -101 6 -185 6 l-154 0 0 324 c0 182 -4 336 -10 350 -6 17 -21 28 -47 35
-23 6 -225 10 -515 11 -420 0 -478 -2 -478 -15 0 -17 -31 -20 -46 -5 -7 7
-124 9 -330 8 l-319 -3 -5 -48 -5 -49 -29 30 c-15 17 -51 41 -80 54 -49 22
-63 23 -328 26 -259 3 -279 2 -315 -17 -46 -23 -88 -66 -103 -105 l-11 -29
-28 44 c-28 45 -61 65 -146 87 -53 14 -255 20 -378 11z m2573 -286 c3 -3 5
-154 5 -336 l0 -332 -82 -3 -83 -3 0 343 0 343 78 -3 c42 -2 79 -6 82 -9z
m-1820 -14 c-7 -13 -10 -81 -8 -195 l3 -176 33 -29 c18 -16 41 -29 53 -29 19
0 19 1 5 22 -13 18 -16 53 -16 179 0 216 -6 209 181 209 78 0 149 -5 160 -10
16 -9 19 -7 19 10 0 19 7 16 58 -23 31 -25 73 -61 92 -82 l35 -36 3 -172 c2
-94 1 -186 -3 -203 -3 -18 -24 -52 -46 -78 -63 -71 -99 -78 -382 -74 -226 3
-233 4 -277 28 -24 14 -58 44 -75 68 l-30 44 -5 187 c-5 203 -6 207 -65 243
l-30 18 43 0 c41 0 42 -1 42 -32 l0 -32 68 66 c57 56 135 118 149 118 2 0 -1
-9 -7 -21z m-454 -23 c8 -8 14 -22 14 -30 0 -14 -19 -16 -141 -16 -140 0 -140
0 -137 22 4 29 32 35 156 37 69 1 97 -3 108 -13z m2772 -204 l2 -212 205 0
205 0 0 -105 0 -104 -32 -6 c-18 -3 -148 -5 -288 -3 l-255 3 0 277 c0 233 2
280 15 292 22 22 123 76 135 72 6 -1 11 -84 13 -214z m-3124 174 c9 -36 46
-44 239 -50 115 -4 189 -11 210 -20 77 -31 107 -108 107 -266 0 -236 -48 -276
-340 -287 -172 -6 -284 7 -323 38 -38 29 -57 81 -64 169 l-6 80 87 0 c86 0 86
0 86 -25 0 -14 11 -37 25 -51 25 -25 26 -25 181 -22 180 4 184 5 184 95 0 86
-6 89 -229 96 -215 8 -255 17 -288 66 -42 62 -25 100 81 179 36 28 42 27 50
-2z m1666 -33 l0 -33 215 0 c247 0 235 5 235 -99 l0 -61 -222 -2 -223 -3 -3
-192 -2 -193 -85 0 -85 0 0 265 0 265 28 29 c15 16 49 41 76 55 55 29 66 25
66 -31z m3410 37 c0 -11 5 -20 10 -20 6 0 10 -11 10 -25 l0 -25 -125 0 -125 0
0 -110 c0 -67 4 -110 10 -110 6 0 10 -11 10 -25 0 -34 27 -45 114 -45 83 0 97
-11 39 -31 -52 -17 -224 -5 -240 17 -27 37 -29 325 -3 375 10 17 22 19 155 19
138 0 145 -1 145 -20z m-408 -157 c5 -250 14 -262 209 -271 143 -6 185 5 205
54 8 18 14 52 14 74 l0 40 -115 0 -115 0 0 82 0 81 182 -6 c159 -6 185 -9 196
-24 10 -14 13 -59 10 -188 -3 -158 -5 -173 -28 -219 -45 -91 -47 -91 -313 -91
-263 0 -286 5 -341 65 -54 60 -70 127 -70 301 -1 133 1 149 19 169 31 35 115
100 130 100 10 0 14 -37 17 -167z m-4305 -203 c7 -39 -12 -45 -147 -48 l-130
-4 0 36 0 37 137 -3 c113 -3 138 -6 140 -18z"/>
<path d="M8850 2447 c0 -25 15 -56 182 -363 l158 -291 0 -156 c0 -99 4 -166
12 -180 6 -12 14 -29 18 -37 6 -12 30 -15 126 -15 l119 0 5 180 5 180 163 301
c168 312 187 361 145 380 -10 4 -81 9 -158 12 l-140 4 -81 -163 -81 -163 -79
152 c-43 83 -86 154 -94 158 -8 4 -79 9 -157 12 -125 4 -143 2 -143 -11z m416
-368 l26 -52 45 83 c25 45 48 78 52 74 3 -5 17 -11 31 -13 29 -4 96 -36 105
-51 4 -6 -28 -76 -69 -155 l-76 -145 0 -165 0 -165 -85 0 -85 0 0 165 0 165
-80 147 c-44 82 -80 153 -80 158 0 11 63 39 120 53 39 9 42 6 96 -99z"/>
<path d="M2491 2349 c-99 -19 -164 -93 -163 -184 1 -141 120 -236 219 -175 50
30 68 64 54 99 -18 41 -54 58 -86 41 -36 -19 -43 -55 -16 -84 22 -23 22 -23 2
-29 -32 -8 -84 24 -109 68 -62 108 21 224 161 225 128 0 205 -100 195 -255 -7
-114 -59 -183 -159 -214 -30 -10 -36 -16 -32 -32 5 -16 11 -19 32 -14 91 22
169 92 191 170 8 27 11 81 8 139 -3 83 -7 100 -33 141 -52 83 -159 125 -264
104z"/>
<path d="M4010 1351 c-77 -16 -120 -65 -120 -137 0 -53 26 -87 82 -103 24 -7
49 -18 56 -23 38 -31 -19 -94 -77 -84 -18 3 -41 12 -51 21 -25 23 -30 19 -30
-25 0 -35 4 -42 28 -51 43 -17 128 -13 164 8 49 28 70 64 70 117 0 56 -13 73
-72 99 -84 36 -97 61 -55 102 44 45 95 23 95 -41 0 -27 4 -34 19 -34 22 0 27
12 37 93 l6 57 -30 0 c-16 0 -42 2 -58 4 -16 3 -45 1 -64 -3z"/>
<path d="M4470 1346 c0 -2 -11 -77 -25 -165 -14 -89 -22 -173 -19 -189 15 -62
68 -81 118 -41 27 21 32 44 16 69 -8 13 -12 12 -25 -7 -41 -59 -44 -16 -12
185 13 78 21 144 19 147 -6 6 -72 7 -72 1z"/>
<path d="M7596 1323 c-21 -102 -46 -303 -41 -330 12 -65 66 -82 119 -40 l29
23 23 -23 c62 -62 191 18 208 130 4 27 2 59 -6 83 -13 38 -15 39 -56 37 -23
-1 -42 2 -42 8 0 16 -66 10 -83 -9 -24 -26 -57 -103 -57 -134 0 -24 -37 -78
-54 -78 -11 0 -6 73 14 195 27 165 27 165 -14 165 -29 0 -35 -4 -40 -27z"/>
<path d="M6387 1283 c-4 -3 -7 -21 -7 -40 0 -22 -5 -33 -14 -33 -18 0 -33 -43
-17 -48 7 -2 9 -31 5 -90 -6 -81 -4 -89 16 -110 17 -18 31 -23 55 -20 l33 4
-19 -24 c-10 -14 -23 -42 -29 -62 -6 -24 -17 -40 -30 -43 -24 -6 -28 -47 -5
-47 20 0 20 -3 -20 -232 -4 -27 -3 -28 34 -28 l39 0 11 68 c23 134 32 161 62
183 37 26 39 59 4 59 -14 0 -25 4 -25 9 0 24 24 73 41 82 10 5 19 19 19 31 0
18 -4 20 -35 15 l-36 -6 23 29 c26 32 38 37 38 16 0 -26 50 -56 94 -56 40 0
107 27 113 46 2 6 -3 19 -11 29 -14 20 -15 20 -38 -2 -30 -28 -64 -30 -78 -4
-23 44 -15 51 65 51 l75 0 0 40 c0 73 -33 110 -99 110 -62 0 -131 -78 -131
-150 -1 -30 -2 -32 -11 -17 -10 17 -13 16 -39 -14 -27 -33 -27 -33 -39 -11
-14 26 -1 95 25 123 9 10 28 19 41 19 19 0 23 5 23 30 0 27 -3 30 -33 30 -32
0 -33 1 -29 35 4 34 3 35 -30 35 -19 0 -38 -3 -41 -7z"/>
<path d="M6082 1177 c-64 -65 -68 -72 -52 -97 8 -12 15 -9 45 20 25 24 38 31
46 23 17 -17 23 -88 9 -112 -15 -29 -54 -25 -58 7 -2 13 -10 22 -21 22 -14 0
-20 -11 -25 -42 -8 -49 1 -58 62 -58 34 0 49 6 79 33 31 29 37 41 41 88 3 42
-1 67 -18 107 -34 79 -38 80 -108 9z"/>
<path d="M8933 1174 c-42 -46 -59 -72 -56 -85 7 -26 14 -24 53 16 l34 35 13
-22 c16 -29 17 -100 1 -116 -21 -21 -47 -14 -54 14 -10 39 -37 26 -45 -21 -4
-22 -5 -42 -3 -44 1 -2 23 -6 47 -8 121 -14 178 108 112 242 -14 30 -30 55
-34 55 -4 0 -34 -30 -68 -66z"/>
<path d="M4207 1202 c-27 -30 -57 -105 -57 -145 -1 -126 100 -167 190 -77 57
57 73 129 45 197 -15 34 -16 35 -55 29 -25 -4 -40 -2 -40 4 0 17 -66 11 -83
-8z"/>
<path d="M5283 1198 c-36 -40 -53 -85 -54 -145 0 -32 -3 -52 -6 -46 -3 8 -14
11 -30 7 l-26 -7 6 64 c4 35 10 81 13 102 7 37 7 37 -29 37 -41 0 -42 -2 -59
-115 -11 -75 -10 -89 5 -120 13 -27 23 -35 43 -35 26 0 84 28 84 41 0 4 13 -6
29 -22 33 -32 67 -37 109 -15 36 19 78 65 91 99 14 36 14 108 1 142 -10 26
-13 27 -56 20 -32 -4 -44 -3 -39 4 13 22 -61 12 -82 -11z"/>
<path d="M5647 1197 c-12 -13 -28 -32 -35 -43 -11 -17 -12 -15 -8 19 l5 38
-42 -3 -42 -3 -20 -133 -21 -133 34 3 c31 3 36 8 53 51 24 61 49 98 60 91 5
-3 9 -24 9 -47 0 -23 5 -59 11 -79 8 -30 15 -38 33 -38 15 0 37 14 57 38 l33
37 27 -27 c32 -32 91 -38 138 -14 43 23 53 39 37 62 -14 19 -15 19 -38 -3 -41
-38 -88 -25 -88 24 0 22 3 23 75 23 l75 0 0 46 c0 37 -5 51 -30 76 -28 27 -36
30 -76 25 -74 -8 -124 -71 -124 -155 0 -34 -3 -38 -22 -37 -22 1 -23 7 -28 87
-7 113 -29 141 -73 95z"/>
<path d="M7163 1202 c-10 -9 -26 -29 -36 -42 l-18 -25 6 38 6 37 -40 0 c-46 0
-43 8 -66 -140 -20 -130 -21 -130 15 -130 27 0 32 6 64 76 20 41 39 73 44 70
5 -3 12 -34 15 -68 3 -35 9 -71 12 -81 12 -29 50 -20 88 22 l35 39 11 -24 c41
-91 194 -26 219 93 10 46 4 105 -13 133 -5 8 -21 10 -46 6 -25 -4 -39 -2 -39
4 0 7 -15 10 -37 8 -53 -4 -95 -65 -101 -146 -4 -52 -6 -58 -26 -57 -19 1 -21
9 -26 87 -6 108 -28 140 -67 100z"/>
<path d="M4600 1173 c-17 -63 -24 -187 -11 -211 19 -35 54 -28 95 19 l35 41 6
-28 c3 -16 10 -36 14 -44 20 -38 101 -9 101 36 0 26 -10 30 -27 13 -20 -20
-22 7 -8 97 20 118 20 114 -17 114 -31 0 -34 -4 -61 -70 -16 -38 -37 -80 -48
-92 l-20 -23 5 60 c3 33 8 75 12 93 6 31 6 32 -29 32 -33 0 -37 -3 -47 -37z"/>
<path d="M4955 1202 c-84 -27 -129 -136 -90 -212 8 -16 24 -34 34 -40 51 -27
151 3 151 45 0 33 -10 36 -47 14 -27 -17 -36 -19 -48 -9 -29 24 -13 131 22
144 22 9 33 -2 33 -30 0 -17 5 -24 20 -24 14 0 21 9 25 38 3 20 8 47 11 60 4
20 1 22 -43 21 -27 -1 -57 -4 -68 -7z"/>
<path d="M6850 1192 c-80 -40 -108 -157 -54 -221 21 -26 33 -31 67 -31 45 0
107 31 107 52 0 7 -4 20 -10 28 -8 12 -11 12 -27 -1 -49 -43 -89 -22 -80 43 6
42 31 88 48 88 6 0 16 -13 22 -30 12 -30 47 -43 47 -16 0 7 3 34 6 60 l7 46
-49 0 c-27 0 -65 -8 -84 -18z"/>
<path d="M7992 1176 c-50 -57 -61 -174 -22 -221 23 -28 66 -18 99 22 l30 36
-14 -52 c-13 -49 -28 -77 -50 -93 -13 -10 -35 11 -35 33 0 13 -7 19 -21 19
-20 0 -21 -4 -16 -45 6 -60 30 -85 77 -85 44 0 82 30 103 83 8 18 24 94 36
168 12 74 23 142 25 152 3 14 -3 17 -35 17 -34 0 -39 -3 -39 -23 0 -69 -63
-189 -90 -172 -31 19 4 106 50 125 40 17 39 45 -1 59 -50 17 -65 14 -97 -23z"/>
<path d="M8252 1146 c-17 -88 -15 -157 4 -184 29 -42 114 -17 114 34 0 25 -23
33 -36 13 -5 -8 -10 -7 -16 4 -7 14 1 104 17 175 5 20 2 22 -33 22 l-39 0 -11
-64z"/>
<path d="M8465 1196 c-42 -18 -83 -69 -91 -112 -8 -46 10 -109 39 -129 30 -21
96 -19 135 5 36 22 36 23 21 51 -10 20 -11 20 -45 -2 -45 -27 -64 -14 -64 47
0 31 7 51 23 70 27 31 47 26 47 -12 0 -17 5 -24 20 -24 20 0 23 6 35 83 l6 37
-48 0 c-26 -1 -62 -7 -78 -14z"/>
<path d="M8658 1190 c-37 -29 -58 -81 -58 -144 0 -75 15 -106 53 -106 21 0 39
10 62 35 l32 36 9 -33 c11 -39 42 -48 80 -24 26 18 33 56 10 56 -8 0 -17 4
-20 9 -5 7 6 93 20 164 5 26 4 27 -35 27 -30 0 -41 -4 -41 -15 0 -8 -2 -15 -4
-15 -2 0 -20 7 -39 15 -45 18 -39 19 -69 -5z"/>
<path d="M353 1145 c-45 -32 -38 -141 12 -191 16 -16 36 -24 60 -24 30 0 38 5
51 34 24 50 12 116 -30 161 -36 38 -60 43 -93 20z"/>
<path d="M633 965 c-146 -98 -306 -156 -433 -156 -106 -1 -168 43 -140 97 25
46 -14 75 -44 32 -36 -51 -10 -121 58 -159 34 -19 55 -23 126 -23 134 1 299
56 433 144 71 47 85 66 65 87 -11 11 -23 7 -65 -22z"/>
<path d="M5016 883 c-10 -49 -56 -341 -56 -357 0 -23 59 -22 66 2 3 9 17 41
30 71 29 62 44 56 44 -17 0 -24 5 -52 10 -63 15 -27 56 -24 87 7 20 20 28 23
34 12 5 -7 9 -16 9 -20 0 -5 14 -8 31 -8 23 0 41 10 65 35 l33 36 9 -33 c9
-38 30 -45 73 -28 20 9 29 19 29 36 0 14 -6 24 -14 24 -8 0 -17 4 -20 9 -5 7
6 93 20 164 5 25 3 27 -30 27 -21 0 -38 -6 -44 -15 -7 -14 -12 -14 -46 0 -34
15 -40 15 -62 0 -36 -23 -64 -87 -65 -147 0 -29 -3 -48 -5 -41 -3 7 -12 9 -19
7 -17 -7 -23 15 -28 104 -2 34 -8 67 -14 73 -17 17 -47 2 -67 -32 -10 -17 -20
-29 -22 -27 -2 2 3 44 11 93 20 119 20 115 -19 115 -29 0 -35 -4 -40 -27z"/>
<path d="M7206 883 c-21 -101 -45 -298 -40 -321 15 -62 68 -81 118 -41 27 21
32 44 16 69 -8 13 -12 12 -25 -7 -41 -59 -44 -16 -11 185 l23 142 -38 0 c-33
0 -38 -3 -43 -27z"/>
<path d="M8567 903 c-3 -5 -8 -30 -11 -58 -14 -99 -11 -95 -64 -78 l-45 16
-33 -36 c-32 -34 -54 -89 -54 -133 0 -20 -17 -34 -40 -34 -17 0 -19 33 -5 112
8 46 15 84 15 86 0 2 -17 2 -37 0 -37 -3 -38 -4 -50 -58 -17 -82 -16 -162 3
-188 19 -28 63 -29 97 -2 l26 21 21 -21 c29 -29 48 -25 91 20 l39 40 6 -27 c4
-16 11 -34 17 -40 15 -20 56 -15 81 10 23 23 23 23 32 3 6 -14 20 -22 40 -24
26 -3 37 3 62 34 28 33 32 35 37 18 17 -51 44 -66 84 -44 26 13 29 60 5 60
-15 0 -16 9 -11 68 3 37 9 82 13 100 6 31 6 32 -29 32 -21 0 -37 -6 -41 -15
-4 -13 -10 -13 -46 0 -33 12 -45 12 -61 2 -32 -20 -61 -74 -68 -130 -4 -38
-11 -53 -23 -55 -24 -5 -23 29 2 183 11 66 20 126 20 133 0 13 -66 18 -73 5z"/>
<path d="M7456 820 c-4 -26 -11 -40 -21 -40 -17 0 -21 -46 -5 -52 6 -2 6 -25
-1 -68 -16 -100 6 -150 65 -150 38 0 71 22 91 60 13 25 13 29 0 40 -13 10 -20
8 -40 -14 -31 -33 -45 -26 -45 21 0 54 27 102 64 111 24 6 32 14 34 35 3 25 1
27 -33 27 -37 0 -37 0 -31 35 l7 35 -39 0 c-38 0 -40 -1 -46 -40z"/>
<path d="M6142 783 c-7 -3 -24 -21 -38 -41 l-26 -37 5 38 6 38 -42 -3 -42 -3
-21 -133 -21 -133 35 3 c31 3 36 8 58 62 40 100 64 110 64 27 0 -110 38 -140
98 -78 36 37 36 73 1 62 -18 -6 -19 0 -19 72 0 99 -20 141 -58 126z"/>
<path d="M4087 753 c-35 -37 -57 -93 -57 -145 0 -96 51 -124 122 -68 37 30 39
31 34 8 -8 -33 -26 -140 -26 -150 0 -4 17 -8 39 -8 l38 0 27 173 c15 94 30
182 33 195 5 20 2 22 -35 22 -22 0 -42 -5 -44 -12 -3 -9 -12 -9 -38 0 -49 17
-63 15 -93 -15z"/>
<path d="M4350 728 c-7 -29 -14 -80 -17 -113 -4 -50 -2 -64 14 -84 28 -35 63
-23 102 36 l31 46 0 -37 c0 -50 15 -76 45 -76 33 0 78 40 70 62 -6 14 -11 16
-27 7 -20 -11 -21 -9 -15 47 3 33 9 83 13 112 l7 53 -33 -3 c-31 -3 -36 -8
-59 -65 -14 -34 -36 -75 -49 -90 l-23 -28 6 55 c3 30 8 72 11 93 7 37 7 37
-29 37 -35 0 -36 -1 -47 -52z"/>
<path d="M4678 765 c-79 -43 -101 -194 -35 -240 27 -19 87 -19 131 -1 40 17
49 29 41 56 -8 25 -20 25 -45 0 -29 -29 -68 -26 -80 6 -6 14 -9 37 -9 52 1 17
3 21 6 10 4 -15 16 -18 74 -18 l69 0 0 50 c0 41 -5 56 -25 75 -28 29 -84 33
-127 10z"/>
<path d="M5595 773 c-62 -16 -105 -81 -105 -158 0 -39 5 -52 30 -77 28 -28 35
-30 81 -26 68 7 103 40 80 77 -7 11 -15 9 -41 -10 l-32 -24 -20 25 c-15 18
-18 32 -13 60 14 75 60 107 72 50 9 -45 39 -40 47 8 13 78 11 82 -36 81 -24
-1 -52 -4 -63 -6z"/>
<path d="M5788 765 c-79 -43 -101 -194 -35 -240 27 -19 87 -19 131 -1 40 17
49 29 41 56 -8 25 -20 25 -45 0 -29 -29 -68 -26 -80 6 -6 14 -9 37 -9 52 1 17
3 21 6 10 4 -15 16 -18 74 -18 l69 0 0 50 c0 41 -5 56 -25 75 -28 29 -84 33
-127 10z"/>
<path d="M6562 764 c-53 -37 -81 -162 -50 -229 17 -38 62 -34 104 10 l33 36 9
-33 c9 -38 30 -45 73 -28 20 9 29 19 29 36 0 14 -6 24 -14 24 -8 0 -17 4 -20
9 -5 7 6 93 20 164 5 25 3 27 -30 27 -21 0 -38 -6 -44 -15 -7 -14 -12 -14 -45
0 -44 18 -38 18 -65 -1z"/>
<path d="M6875 773 c-62 -16 -105 -81 -105 -158 0 -39 5 -52 30 -77 28 -28 35
-30 81 -26 68 7 103 40 80 77 -7 11 -15 9 -41 -10 l-32 -24 -20 25 c-15 18
-18 32 -13 60 14 75 60 107 72 50 9 -45 39 -40 47 8 13 78 11 82 -36 81 -24
-1 -52 -4 -63 -6z"/>
<path d="M7037 773 c-2 -5 -10 -39 -17 -76 -14 -75 -9 -149 10 -172 30 -36
124 2 113 45 -4 15 -11 18 -28 14 -32 -8 -35 9 -19 107 7 46 14 85 14 87 0 6
-69 1 -73 -5z"/>
<path d="M7630 728 c-6 -29 -14 -80 -17 -113 -4 -50 -2 -64 14 -84 29 -36 66
-22 103 36 l30 47 0 -38 c0 -50 15 -76 45 -76 34 0 80 42 72 65 -6 14 -10 15
-22 5 -26 -21 -29 -3 -17 89 17 123 17 121 -18 121 -24 0 -33 -6 -41 -27 -25
-66 -71 -153 -81 -153 -7 0 -8 16 -4 48 4 26 9 66 13 90 l6 42 -36 0 c-35 0
-36 -1 -47 -52z"/>
<path d="M7993 758 c3 -13 13 -74 23 -135 l17 -113 33 0 c29 0 38 6 60 42 35
55 104 198 104 215 0 11 -15 13 -62 11 -57 -3 -63 -5 -66 -25 -3 -18 2 -23 17
-23 28 0 28 -43 -1 -107 l-21 -48 -16 103 -15 102 -39 0 c-36 0 -39 -2 -34
-22z"/>
<path d="M389 721 c-54 -48 -103 -128 -133 -218 -26 -76 -80 -317 -74 -333 2
-6 22 34 46 87 123 283 210 351 220 173 5 -92 -8 -141 -75 -282 -31 -65 -53
-124 -50 -132 18 -45 80 6 124 101 79 171 122 564 68 623 -30 33 -75 26 -126
-19z"/>
</g>
</svg>
